<?xml version="1.0" encoding="UTF-8"?>
<svg xmlns="http://www.w3.org/2000/svg" xmlns:xlink="http://www.w3.org/1999/xlink" width="533px" height="700px" viewBox="0 0 533 699" version="1.1">
<defs>
<clipPath id="clip1">
  <path d="M 15.140625 0 L 517.859375 0 C 526.21875 0 533 6.773438 533 15.128906 L 533 683.871094 C 533 692.226562 526.21875 699 517.859375 699 L 15.140625 699 C 6.78125 699 0 692.226562 0 683.871094 L 0 15.128906 C 0 6.773438 6.78125 0 15.140625 0 Z M 15.140625 0 "/>
</clipPath>
<filter id="alpha" filterUnits="objectBoundingBox" x="0%" y="0%" width="100%" height="100%">
  <feColorMatrix type="matrix" in="SourceGraphic" values="0 0 0 0 1 0 0 0 0 1 0 0 0 0 1 0 0 0 1 0"/>
</filter>
<mask id="mask0">
  <g filter="url(#alpha)">
<rect x="0" y="0" width="533" height="699" style="fill:rgb(0%,0%,0%);fill-opacity:0.501961;stroke:none;"/>
  </g>
</mask>
<clipPath id="clip2">
  <rect x="0" y="0" width="533" height="699"/>
</clipPath>
<g id="surface5" clip-path="url(#clip2)">
<path style="fill:none;stroke-width:1.5;stroke-linecap:round;stroke-linejoin:round;stroke:rgb(100%,100%,100%);stroke-opacity:1;stroke-miterlimit:4;" d="M 101.070239 101.834462 C 101.070239 93.917332 94.653143 87.500235 86.735929 87.500235 C 78.820005 87.500235 72.402908 93.917332 72.402908 101.834462 C 72.402908 109.750302 78.820005 116.16869 86.735929 116.16869 C 94.653143 116.16869 101.070239 109.750302 101.070239 101.834462 Z M 101.070239 101.834462 " transform="matrix(3.028409,0,0,3.025974,0,0)"/>
<path style="fill:none;stroke-width:1.5;stroke-linecap:round;stroke-linejoin:round;stroke:rgb(100%,100%,100%);stroke-opacity:1;stroke-miterlimit:4;" d="M 63.999414 136.104161 C 63.996834 135.097254 64.221271 134.100674 64.658537 133.193167 C 66.032247 130.447408 69.904432 128.992556 73.116205 128.332903 C 75.434099 127.838486 77.78295 127.508014 80.14599 127.344069 C 84.522514 126.959378 88.923546 126.959378 93.30007 127.344069 C 95.66311 127.510595 98.011961 127.839777 100.329855 128.332903 C 103.541628 128.992556 107.413813 130.310572 108.787523 133.193167 C 109.667214 135.044327 109.667214 137.192395 108.787523 139.042265 C 107.413813 141.92615 103.541628 143.244166 100.329855 143.875419 C 98.01583 144.390491 95.665689 144.729999 93.30007 144.891363 C 89.738743 145.193435 86.159357 145.247653 82.590291 145.056599 C 81.766065 145.056599 80.970216 145.056599 80.14599 144.891363 C 77.7894 144.732581 75.449578 144.391782 73.144583 143.875419 C 69.904432 143.244166 66.059334 141.92615 64.658537 139.042265 C 64.223851 138.12443 63.998124 137.120105 63.999414 136.104161 Z M 63.999414 136.104161 " transform="matrix(3.028409,0,0,3.025974,0,0)"/>
</g>
</defs>
<g id="surface1">
<g clip-path="url(#clip1)" clip-rule="nonzero">
<path style=" stroke:none;fill-rule:nonzero;fill:rgb(76.862745%,76.862745%,76.862745%);fill-opacity:1;" d="M 15.140625 -18.15625 L 520.886719 -18.15625 C 529.25 -18.15625 536.027344 -11.382812 536.027344 -3.027344 L 536.027344 765.570312 C 536.027344 773.925781 529.25 780.703125 520.886719 780.703125 L 15.140625 780.703125 C 6.78125 780.703125 0 773.925781 0 765.570312 L 0 -3.027344 C 0 -11.382812 6.78125 -18.15625 15.140625 -18.15625 Z M 15.140625 -18.15625 "/>
<use xlink:href="#surface5" mask="url(#mask0)"/>
</g>
</g>
</svg>
